<?xml version="1.0" encoding="UTF-8"?>
<svg id="Layer_1" data-name="Layer 1" xmlns="http://www.w3.org/2000/svg" viewBox="0 0 457.66 141.7">
  <defs>
    <style>
      .cls-1, .cls-2 {
        fill: #004e9a;
      }

      .cls-2 {
        fill-rule: evenodd;
      }
    </style>
  </defs>
  <g>
    <path class="cls-2" d="m106.11,56.49h-21.1v-21.1h-28.52v21.1h-21.1v28.52h21.1v21.11h28.52v-15.98l-1.11-1.11c-2.46-2.1-5.33-3.75-7.59-2.78-1.72.73-4.07.18-5.37-1.12l-17.62-17.62,2.03-2.03,12.8,12.8c.51.51,1.34.5,1.84,0,.51-.51.51-1.33,0-1.83l-12.81-12.78,2.02-2.02,12.8,12.8c.51.5,1.35.49,1.85-.02.51-.51.49-1.31-.02-1.82l-12.8-12.8,2.02-2.02,12.8,12.8c.51.51,1.35.49,1.85-.02.51-.51.49-1.31-.02-1.82l-12.8-12.8,2.02-2.02,17.64,17.61c1.3,1.3,1.85,3.65,1.12,5.37-.96,2.26.69,5.13,2.79,7.59l.52.52h17.15v-28.52Z"/>
    <path class="cls-1" d="m70.74,141.49C31.74,141.49,0,109.76,0,70.75S31.74,0,70.74,0s70.75,31.74,70.75,70.75-31.74,70.75-70.75,70.75Zm0-131.9c-33.72,0-61.15,27.43-61.15,61.15s27.43,61.15,61.15,61.15,61.15-27.43,61.15-61.15S104.46,9.6,70.74,9.6Z"/>
    <path class="cls-1" d="m70.74,128.19c-15.34,0-29.77-5.98-40.62-16.83-10.85-10.85-16.83-25.27-16.83-40.62s5.98-29.77,16.83-40.62c10.85-10.85,25.28-16.83,40.62-16.83s29.77,5.98,40.62,16.83c10.85,10.85,16.83,25.28,16.83,40.62s-5.98,29.77-16.83,40.62c-10.85,10.85-25.28,16.83-40.62,16.83Zm0-112.44c-14.69,0-28.5,5.72-38.89,16.11-10.39,10.39-16.11,24.2-16.11,38.89s5.72,28.5,16.11,38.89c10.39,10.39,24.2,16.11,38.89,16.11s28.5-5.72,38.89-16.11c10.39-10.39,16.11-24.2,16.11-38.89s-5.72-28.5-16.11-38.89c-10.39-10.39-24.2-16.11-38.89-16.11Z"/>
  </g>
  <g>
    <path class="cls-1" d="m164.24,106.11V35.27h39.47v11.97h-24.34v16.29h19.08v11.97h-19.08v30.61h-15.13Z"/>
    <path class="cls-1" d="m210.17,106.11l17.84-70.84h17.64l17.35,70.84h-13.16l-3.49-14.91h-19.04l-3.89,14.91h-13.26Zm19.64-26.88h13.66l-6.68-28.65h-.2l-6.78,28.65Z"/>
    <path class="cls-1" d="m311.61,106.11l-13.16-28.85h-7.24v28.85h-15.13V35.27h21.93c18.2,0,26.86,7.85,26.86,21.19,0,8.83-3.51,15.21-11.95,18.05l14.91,31.59h-16.23Zm-20.4-40.03h7.79c6.69,0,10.75-2.94,10.75-9.81s-4.06-9.81-10.75-9.81h-7.79v19.62Z"/>
    <path class="cls-1" d="m342.53,106.11V35.27h41.45v11.97h-26.32v16.29h20.07v11.97h-20.07v18.64h27.41v11.97h-42.54Z"/>
  </g>
  <g>
    <path class="cls-1" d="m164.32,131.98v-14.73h7.34v2.49h-4.53v3.39h3.55v2.49h-3.55v6.37h-2.82Z"/>
    <path class="cls-1" d="m173.14,124.88c0-2.94,1.51-4.2,4.08-4.2s4.08,1.26,4.08,4.2v3.1c0,2.94-1.51,4.2-4.08,4.2s-4.08-1.26-4.08-4.2v-3.1Zm2.57,3.75c0,.86.61,1.31,1.51,1.31s1.51-.45,1.51-1.31v-4.41c0-.86-.61-1.31-1.51-1.31s-1.51.45-1.51,1.31v4.41Z"/>
    <path class="cls-1" d="m183.34,124.88c0-2.94,1.51-4.2,4.08-4.2s4.08,1.26,4.08,4.2v3.1c0,2.94-1.51,4.2-4.08,4.2s-4.08-1.26-4.08-4.2v-3.1Zm2.57,3.75c0,.86.61,1.31,1.51,1.31s1.51-.45,1.51-1.31v-4.41c0-.86-.61-1.31-1.51-1.31s-1.51.45-1.51,1.31v4.41Z"/>
    <path class="cls-1" d="m199.13,131.98v-1.35h-.04c-.45.69-1.59,1.55-2.73,1.55-2,0-2.82-1.55-2.82-4.41v-2.69c0-2.86.82-4.41,2.82-4.41.69,0,1.35.33,2.57,1.22v-4.65h2.57v14.73h-2.37Zm-.2-8.59c-.51-.55-.98-.8-1.55-.8-.69,0-1.26.45-1.26,2.65v2.37c0,2.2.57,2.65,1.26,2.65.57,0,1.04-.25,1.55-.8v-6.08Z"/>
    <path class="cls-1" d="m208.65,131.98l3.65-14.73h3.61l3.55,14.73h-2.69l-.71-3.1h-3.9l-.8,3.1h-2.71Zm4.02-5.59h2.79l-1.37-5.96h-.04l-1.39,5.96Z"/>
    <path class="cls-1" d="m221.28,117.25h2.57v14.73h-2.57v-14.73Z"/>
    <path class="cls-1" d="m226.95,117.25h2.57v14.73h-2.57v-14.73Z"/>
    <path class="cls-1" d="m234.66,127.04v1.47c0,1.1.65,1.59,1.51,1.59,1.08,0,1.51-.69,1.51-1.55h2.57c-.12,2.29-1.49,3.63-4.08,3.63-2.45,0-4.08-1.51-4.08-3.94v-3.63c0-2.43,1.63-3.94,4.08-3.94s4.08,1.51,4.08,3.77v2.59h-5.59Zm3.02-2.08v-.61c0-.98-.47-1.59-1.51-1.59s-1.51.61-1.51,1.59v.61h3.02Z"/>
    <path class="cls-1" d="m242.5,131.98v-11.1h2.51v1.47h.04c.59-1.1,1.37-1.67,2.65-1.67v2.77c-.43-.12-.92-.29-1.37-.29-.84,0-1.27.63-1.27,1.22v7.59h-2.57Z"/>
    <path class="cls-1" d="m257.82,122.92c-.2-.04-.59-.16-.8-.16-.26,0-.53.14-.88.25.16.73.33,1.29.33,1.96,0,2.77-1.18,4.37-3.71,4.37-.37,0-.67-.02-1.06-.14-.14.2-.45.39-.45.65,0,1.39,6.45-.75,6.45,3.26,0,1.9-1.96,2.79-4.94,2.79-2.73,0-4.24-.78-4.24-2.02,0-.84.94-1.35,1.55-1.73-.61-.37-1.06-.86-1.06-1.57,0-.88.92-1.47,1.55-1.86-1.24-.82-1.67-2-1.67-3.86,0-2.39.92-4.18,3.79-4.18,1.06,0,2.24.49,2.9,1.29.65-.82,1.29-1.29,2.24-1.29v2.24Zm-6.32,9.55c-.27.27-.53.49-.53.9,0,.57.84.82,2.35.82,1.22,0,1.94-.31,1.94-.88,0-.37-.16-.53-.94-.59l-2.82-.25Zm1.18-9.71c-.98,0-1.35.67-1.35,2.41,0,1.39.45,2.08,1.22,2.08,1.1,0,1.47-.41,1.47-2.35,0-1.43-.45-2.14-1.35-2.14Z"/>
    <path class="cls-1" d="m258.92,133.61c.25.04.49.04.75.04,1.12,0,1.86-.98,1.86-1.47,0-.65-.2-1.41-.47-2.35l-2.57-8.96h2.61l1.73,7.34h.04l1.61-7.34h2.61l-2.96,11.06c-.8,3-1.84,3.96-4.41,3.96-.24,0-.53-.02-.82-.04v-2.24Z"/>
    <path class="cls-1" d="m280.87,131.98l-2.45-6h-1.35v6h-2.81v-14.73h4.08c3.39,0,5,1.63,5,4.41,0,1.84-.65,3.16-2.22,3.75l2.77,6.57h-3.02Zm-3.79-8.32h1.45c1.24,0,2-.61,2-2.04s-.75-2.04-2-2.04h-1.45v4.08Z"/>
    <path class="cls-1" d="m287.93,127.04v1.47c0,1.1.65,1.59,1.51,1.59,1.08,0,1.51-.69,1.51-1.55h2.57c-.12,2.29-1.49,3.63-4.08,3.63-2.45,0-4.08-1.51-4.08-3.94v-3.63c0-2.43,1.63-3.94,4.08-3.94s4.08,1.51,4.08,3.77v2.59h-5.59Zm3.02-2.08v-.61c0-.98-.47-1.59-1.51-1.59s-1.51.61-1.51,1.59v.61h3.02Z"/>
    <path class="cls-1" d="m300.66,124.27c-.35-1.02-1-1.51-1.77-1.51-.59,0-1.04.43-1.04,1,0,1.71,5.02,1.75,5.02,5.06,0,2.2-1.55,3.37-3.69,3.37-1.55,0-2.94-.39-4.18-3.16l2.3-.63c.22,1.04.86,1.71,1.88,1.71.78,0,1.24-.37,1.24-.98,0-2.12-5.02-1.61-5.02-5.34,0-2.1,1.69-3.1,3.51-3.1,1.92,0,3.24,1.1,3.88,2.77l-2.12.82Z"/>
    <path class="cls-1" d="m307.19,127.04v1.47c0,1.1.65,1.59,1.51,1.59,1.08,0,1.51-.69,1.51-1.55h2.57c-.12,2.29-1.49,3.63-4.08,3.63-2.45,0-4.08-1.51-4.08-3.94v-3.63c0-2.43,1.63-3.94,4.08-3.94s4.08,1.51,4.08,3.77v2.59h-5.59Zm3.02-2.08v-.61c0-.98-.47-1.59-1.51-1.59s-1.51.61-1.51,1.59v.61h3.02Z"/>
    <path class="cls-1" d="m314.77,124.12c.18-2.47,2.06-3.45,4.12-3.45,2.73,0,3.77,1.39,3.77,3.37v7.04c0,.31.06.61.14.9h-2.57c-.06-.29-.1-.63-.18-1.08-.75.75-1.77,1.29-3.06,1.29-1.55,0-2.55-.86-2.55-2.65,0-2.57,2.45-3.67,5.65-4.63v-.82c0-.96-.59-1.33-1.33-1.33-.78,0-1.43.57-1.43,1.37h-2.57Zm5.32,2.43c-1.53.53-3.08,1.39-3.08,2.55,0,.73.45,1.16,1.14,1.16.78,0,1.33-.41,1.94-1.02v-2.69Z"/>
    <path class="cls-1" d="m325.22,131.98v-11.1h2.51v1.47h.04c.59-1.1,1.37-1.67,2.65-1.67v2.77c-.43-.12-.92-.29-1.37-.29-.84,0-1.27.63-1.27,1.22v7.59h-2.57Z"/>
    <path class="cls-1" d="m337.4,124.72v-.49c0-.86-.61-1.31-1.51-1.31s-1.51.45-1.51,1.31v4.41c0,.86.61,1.31,1.51,1.31s1.51-.45,1.51-1.31v-.69h2.57v.04c0,2.94-1.51,4.2-4.08,4.2s-4.08-1.26-4.08-4.2v-3.1c0-2.94,1.51-4.2,4.08-4.2s4.02,1.22,4.06,4.04h-2.55Z"/>
    <path class="cls-1" d="m342.21,131.98v-14.73h2.57v4.9c.86-.82,1.73-1.47,2.79-1.47,1.57,0,2.39.8,2.39,2.86v8.45h-2.57v-8.16c0-.73-.25-1.22-.94-1.22-.53,0-1.12.51-1.67,1v8.38h-2.57Z"/>
    <path class="cls-1" d="m369.47,125.21c-.47,1.22-1,2.47-1.75,3.67.59.41,1.29.73,2.04.82v2.49c-1.41,0-2.33-.33-3.71-1.51-.96.94-2.24,1.51-3.69,1.51-2.84,0-4.79-1.39-4.79-4.08,0-2.04,1.02-3.12,2.49-4.08-.78-1.16-1.2-2.08-1.2-3.31,0-2.53,1.78-3.67,3.77-3.67s3.47,1.47,3.47,3.33-1.47,3-2.84,4.08c.79,1.08,1.67,2.08,2.63,3,.53-.96,1.04-1.86,1.33-2.88l2.26.63Zm-7,4.65c.76,0,1.49-.35,1.9-.82-1.12-.98-2.08-2.04-2.94-3.14-.63.49-1.06.98-1.06,1.84,0,1.43,1.02,2.12,2.1,2.12Zm-1.3-9.51c0,.86.35,1.51.84,2.33.78-.69,1.75-1.37,1.75-2.55,0-.63-.45-1.37-1.3-1.37s-1.29.69-1.29,1.59Z"/>
    <path class="cls-1" d="m377.4,131.98v-14.73h7.71v2.49h-4.9v3.39h3.73v2.49h-3.73v3.88h5.1v2.49h-7.92Z"/>
    <path class="cls-1" d="m392.95,131.98v-1.35h-.04c-.45.69-1.59,1.55-2.73,1.55-2,0-2.81-1.55-2.81-4.41v-2.69c0-2.86.81-4.41,2.81-4.41.69,0,1.35.33,2.57,1.22v-4.65h2.57v14.73h-2.37Zm-.21-8.59c-.51-.55-.98-.8-1.55-.8-.69,0-1.26.45-1.26,2.65v2.37c0,2.2.57,2.65,1.26,2.65.57,0,1.04-.25,1.55-.8v-6.08Z"/>
    <path class="cls-1" d="m405.51,120.88v11.1h-2.49v-1.26c-.94.82-1.81,1.47-2.87,1.47-1.57,0-2.39-.8-2.39-2.86v-8.45h2.57v8.16c0,.73.24,1.22.94,1.22.53,0,1.12-.51,1.67-1v-8.38h2.57Z"/>
    <path class="cls-1" d="m413.35,124.72v-.49c0-.86-.61-1.31-1.51-1.31s-1.51.45-1.51,1.31v4.41c0,.86.61,1.31,1.51,1.31s1.51-.45,1.51-1.31v-.69h2.57v.04c0,2.94-1.51,4.2-4.08,4.2s-4.08-1.26-4.08-4.2v-3.1c0-2.94,1.51-4.2,4.08-4.2s4.02,1.22,4.06,4.04h-2.55Z"/>
    <path class="cls-1" d="m417.92,124.12c.18-2.47,2.06-3.45,4.12-3.45,2.73,0,3.77,1.39,3.77,3.37v7.04c0,.31.06.61.14.9h-2.57c-.06-.29-.1-.63-.18-1.08-.75.75-1.77,1.29-3.06,1.29-1.55,0-2.55-.86-2.55-2.65,0-2.57,2.45-3.67,5.65-4.63v-.82c0-.96-.59-1.33-1.33-1.33-.78,0-1.43.57-1.43,1.37h-2.57Zm5.32,2.43c-1.53.53-3.08,1.39-3.08,2.55,0,.73.45,1.16,1.14,1.16.78,0,1.33-.41,1.94-1.02v-2.69Z"/>
    <path class="cls-1" d="m427.26,123.45v-2.08h1.02v-3.02h2.57v3.02h1.65v2.08h-1.65v5.67c0,.55.47.82,1.16.82.18,0,.35,0,.51-.02v2.16c-.49.08-.98.1-1.47.1-1.67,0-2.78-.61-2.78-2.2v-6.53h-1.02Z"/>
    <path class="cls-1" d="m434.36,118.96v-2.33h2.57v2.33h-2.57Zm2.57,1.92v11.1h-2.57v-11.1h2.57Z"/>
    <path class="cls-1" d="m439.5,124.88c0-2.94,1.51-4.2,4.08-4.2s4.08,1.26,4.08,4.2v3.1c0,2.94-1.51,4.2-4.08,4.2s-4.08-1.26-4.08-4.2v-3.1Zm2.57,3.75c0,.86.61,1.31,1.51,1.31s1.51-.45,1.51-1.31v-4.41c0-.86-.61-1.31-1.51-1.31s-1.51.45-1.51,1.31v4.41Z"/>
    <path class="cls-1" d="m449.9,131.98v-11.1h2.49v1.26c.94-.82,1.81-1.47,2.88-1.47,1.57,0,2.39.8,2.39,2.86v8.45h-2.57v-8.16c0-.73-.25-1.22-.94-1.22-.53,0-1.12.51-1.67,1v8.38h-2.57Z"/>
  </g>
  <path class="cls-1" d="m109.86,141.7c-1.01,0-1.88-.36-2.59-1.08s-1.06-1.57-1.06-2.57.36-1.85,1.07-2.57,1.57-1.08,2.58-1.08,1.88.36,2.59,1.09,1.05,1.58,1.05,2.56-.35,1.82-1.05,2.55-1.56,1.09-2.59,1.09Zm2.96-3.64c0-.83-.29-1.54-.86-2.14-.57-.59-1.27-.89-2.08-.89s-1.53.3-2.11.89c-.58.59-.88,1.3-.88,2.14s.29,1.55.88,2.14,1.28.89,2.09.89,1.51-.3,2.09-.89c.58-.59.87-1.3.87-2.14Zm-3.6.43v1.69h-1.1v-4.25h1.91c.57,0,.98.12,1.25.35s.4.55.4.93c0,.51-.25.87-.75,1.09l.82,1.87h-1.22l-.68-1.69h-.63Zm0-1.78v1.03h.57c.29,0,.49-.04.6-.14s.16-.22.16-.4c0-.11-.03-.21-.1-.3-.07-.09-.14-.14-.22-.16s-.23-.03-.47-.03h-.55Z"/>
  <path class="cls-1" d="m391.46,105.63c-1,0-1.84-.35-2.54-1.06s-1.04-1.54-1.04-2.52.35-1.81,1.05-2.52,1.54-1.06,2.53-1.06,1.85.36,2.54,1.07,1.03,1.55,1.03,2.51-.34,1.79-1.03,2.5-1.53,1.07-2.54,1.07Zm2.9-3.57c0-.81-.28-1.51-.84-2.1-.56-.58-1.25-.87-2.04-.87s-1.5.29-2.07.87c-.57.58-.86,1.28-.86,2.09s.29,1.52.86,2.1,1.26.87,2.05.87,1.48-.29,2.05-.87c.57-.58.85-1.28.85-2.09Zm-3.53.42v1.66h-1.08v-4.16h1.87c.56,0,.96.12,1.23.35s.4.53.4.91c0,.5-.24.85-.73,1.07l.8,1.83h-1.19l-.67-1.66h-.61Zm0-1.74v1.01h.56c.28,0,.48-.04.59-.13s.16-.22.16-.39c0-.11-.03-.21-.1-.3-.06-.08-.14-.14-.21-.16s-.23-.03-.46-.03h-.54Z"/>
</svg>